HIERARCHY
ROOT Hips
{
	OFFSET 0.000000 8.830580 0.000000
	CHANNELS 6 Xposition Yposition Zposition Zrotation Yrotation Xrotation 
	JOINT Spine
	{
		OFFSET 0.000000 0.010000 0.000000
		CHANNELS 3 Zrotation Yrotation Xrotation
		JOINT Spine1
		{
			OFFSET 0.000000 2.459130 0.000000
			CHANNELS 3 Zrotation Yrotation Xrotation
			JOINT Neck
			{
				OFFSET 0.000000 2.484630 0.000000
				CHANNELS 3 Zrotation Yrotation Xrotation
				JOINT Head_virtual
				{
					OFFSET 0.000000 0.000000 0.000000
					CHANNELS 3 Zrotation Yrotation Xrotation
					JOINT Head
					{
						OFFSET 0.000000 0.927525 0.000000
						CHANNELS 3 Zrotation Yrotation Xrotation
						End Site
						{
							OFFSET 0.000000 0.000000 0.000000
						}
					}
				}
				JOINT LeftUpArm_virtual
				{
					OFFSET 0.000000 0.000000 0.000000
					CHANNELS 3 Zrotation Yrotation Xrotation
					JOINT LeftUpArm
					{
						OFFSET 1.248820 0.000000 0.000000
						CHANNELS 3 Zrotation Yrotation Xrotation
						JOINT LeftForeArm
						{
							OFFSET 2.597580 0.000000 0.000000
							CHANNELS 3 Zrotation Yrotation Xrotation
							JOINT LeftHand
							{
								OFFSET 2.455420 0.000000 0.000000
								CHANNELS 3 Zrotation Yrotation Xrotation
								End Site
								{
									OFFSET 0.000000 0.000000 0.000000
								}
							}
						}
					}
				}
				JOINT RightUpArm_virtual
				{
					OFFSET -0.000000 -0.000000 -0.000000
					CHANNELS 3 Zrotation Yrotation Xrotation
					JOINT RightUpArm
					{
						OFFSET -1.248820 -0.000000 -0.000000
						CHANNELS 3 Zrotation Yrotation Xrotation
						JOINT RightForeArm
						{
							OFFSET -2.597580 -0.000000 -0.000000
							CHANNELS 3 Zrotation Yrotation Xrotation
							JOINT RightHand
							{
								OFFSET -2.455420 -0.000000 -0.000000
								CHANNELS 3 Zrotation Yrotation Xrotation
								End Site
								{
									OFFSET 0.000000 0.000000 0.000000
								}
							}
						}
					}
				}
			}
		}
	}
	JOINT LeftUpLeg
	{
		OFFSET 1.271939 0.000000 0.000000
		CHANNELS 3 Zrotation Yrotation Xrotation
		JOINT LeftLowLeg
		{
			OFFSET 0.000000 -4.342910 0.000000
			CHANNELS 3 Zrotation Yrotation Xrotation
			JOINT LeftFoot
			{
				OFFSET 0.000000 -4.487670 0.000000
				CHANNELS 3 Zrotation Yrotation Xrotation
				JOINT LeftToeBase
				{
					OFFSET 0.000000 0.000000 1.515070
					CHANNELS 3 Zrotation Yrotation Xrotation
					End Site
					{
						OFFSET 0.000000 0.000000 0.000000
					}
				}
			}
		}
	}
	JOINT RightUpLeg
	{
		OFFSET -1.271939 0.000000 0.000000
		CHANNELS 3 Zrotation Yrotation Xrotation
		JOINT RightLowLeg
		{
			OFFSET 0.000000 -4.342910 0.000000
			CHANNELS 3 Zrotation Yrotation Xrotation
			JOINT RightFoot
			{
				OFFSET 0.000000 -4.487670 0.000000
				CHANNELS 3 Zrotation Yrotation Xrotation
				JOINT RightToeBase
				{
					OFFSET 0.000000 0.000000 1.515070
					CHANNELS 3 Zrotation Yrotation Xrotation
					End Site
					{
						OFFSET 0.000000 0.000000 0.000000
					}
				}
			}
		}
	}
}
MOTION
Frames: 8
Frame Time: 0.041667
-13.317089 8.933151 46.682042 -11.787573 -57.949915 13.398541 -7.710211 -1.696197 -7.679725 16.095461 -7.855242 6.122022 0.000000 0.000000 0.000000 0.607378 -22.581782 19.545525 21.989264 3.342076 -84.572764 -37.475601 5.490200 7.681200 -29.983299 0.795021 13.698300 180.000000 -67.411003 -180.000000 67.069901 -14.611700 13.125300 25.088301 -0.499431 15.847992 12.704000 14.699700 -12.383300 180.000000 81.171700 180.000000 -86.239998 34.655899 -11.118000 3.154022 1.612044 -3.970214 0.000000 0.000000 14.594400 -13.676940 -0.745084 -1.688244 0.000000 0.000000 -31.389200 8.466405 0.198139 -20.534028 0.000000 0.000000 40.114300 8.304684 -2.836117 7.161628 0.000000 0.000000 -47.404099 
-13.372226 8.931055 46.732124 -12.202945 -58.366165 13.891679 -7.891582 -1.756298 -7.594398 16.510137 -7.887382 6.203504 0.000000 0.000000 0.000000 0.688685 -22.745835 19.331798 21.857381 3.357626 -84.667784 -37.714600 5.489970 7.618490 -30.222000 0.744533 13.827300 180.000000 -67.426003 -180.000000 66.878197 -14.796900 12.827400 24.993999 -0.488757 15.733002 12.667300 14.725300 -12.282200 180.000000 80.978500 180.000000 -85.379303 34.065800 -11.126800 3.168222 1.779046 -3.261314 0.000000 0.000000 14.066900 -13.764268 -0.568781 -2.027200 0.000000 0.000000 -31.054001 8.831878 0.382969 -20.574381 0.000000 0.000000 35.550499 8.781769 -4.029453 7.475584 0.000000 0.000000 -45.473101 
-13.431504 8.926136 46.781790 -12.405732 -58.774107 14.270056 -8.161262 -1.840701 -7.618024 16.967987 -7.921205 6.255926 0.000000 0.000000 0.000000 0.629717 -22.832358 19.195996 21.827244 3.235908 -84.734092 -37.965500 5.428760 7.651070 -30.472700 0.713650 13.906400 180.000000 -67.411003 -180.000000 66.786697 -14.748300 12.746600 24.797800 -0.419517 15.570007 12.741400 14.680900 -11.869600 -180.000000 80.370003 -180.000000 -84.262398 30.058901 -11.509200 3.082243 1.967031 -2.563441 0.000000 0.000000 13.475800 -13.747851 -0.387671 -2.326353 0.000000 0.000000 -30.668800 9.031100 0.767038 -20.631432 0.000000 0.000000 31.082100 9.420972 -5.732954 7.781028 0.000000 0.000000 -44.580900 
-13.494050 8.917989 46.829119 -12.499974 -59.210812 14.593998 -8.544448 -1.929559 -7.649133 17.630994 -7.920789 6.250467 0.000000 0.000000 0.000000 0.347052 -22.766353 18.982194 22.111604 2.872042 -84.793505 -38.410999 5.530620 7.639010 -30.322201 0.467949 14.262400 180.000000 -67.442001 -180.000000 67.052803 -14.497800 12.770300 24.440701 -0.326638 15.367004 12.909900 14.505600 -11.310500 180.000000 78.885002 180.000000 -81.498703 20.959499 -13.288000 2.990812 2.222304 -1.872049 0.000000 0.000000 12.846400 -13.730170 -0.417239 -2.583969 0.000000 0.000000 -30.521800 9.117320 1.309222 -20.775875 0.000000 0.000000 26.956800 9.530879 -7.675538 7.851182 0.000000 0.000000 -43.879200 
-13.557402 8.909313 46.875939 -12.679427 -59.664099 15.016225 -8.977663 -2.031975 -7.615057 18.723104 -7.876857 6.066177 0.000000 0.000000 0.000000 -0.323390 -22.574308 18.715960 22.577205 2.070231 -84.850307 -38.865002 5.512590 7.658250 -30.654400 0.555804 14.408900 180.000000 -67.518997 -180.000000 67.001602 -14.590100 12.480000 23.704800 -0.228748 15.397003 13.281900 14.339100 -11.081500 -180.000000 76.557999 -180.000000 -77.418900 7.762930 -17.115101 2.911106 2.250440 -1.183603 0.000000 0.000000 12.195200 -13.816832 -0.215945 -2.933922 0.000000 0.000000 -30.267300 9.154424 1.988987 -21.023967 0.000000 0.000000 23.206301 8.621134 -9.544275 8.274047 0.000000 0.000000 -43.672100 
-13.625495 8.899146 46.923203 -12.718055 -60.101821 15.351056 -9.546107 -2.216332 -7.552943 20.073026 -7.846425 5.717344 0.000000 0.000000 0.000000 -1.074544 -22.515602 18.366416 22.983088 1.016422 -84.819302 -39.398800 5.576540 7.388230 -30.973499 0.797593 14.912200 -180.000000 -67.543999 180.000000 67.127701 -14.416700 12.602200 22.905100 -0.024963 15.411987 13.629000 14.146600 -11.182100 180.000000 73.592003 -180.000000 -73.267403 -8.301840 -21.643000 2.771431 2.398536 -0.507021 0.000000 0.000000 11.524500 -13.873196 -0.069416 -3.218703 0.000000 0.000000 -30.093600 9.166788 2.430527 -21.198791 0.000000 0.000000 19.542601 7.849106 -11.128926 8.775475 0.000000 0.000000 -43.813000 
-13.697816 8.887131 46.970266 -12.718881 -60.484799 15.681626 -9.834733 -2.259145 -7.729925 20.850900 -7.808281 5.686061 0.000000 0.000000 0.000000 -1.438564 -22.807101 17.965662 23.322422 0.240767 -84.857119 -39.804600 5.560570 7.500770 -31.113701 0.783474 15.060700 -180.000000 -67.599998 180.000000 67.074997 -14.429700 12.441600 22.405500 0.044914 15.489990 13.976900 14.131900 -12.299700 -180.000000 70.352997 -180.000000 -68.902802 -25.449900 -27.175800 2.646318 2.688566 0.100378 0.000000 0.000000 10.949400 -13.440412 0.104140 -3.578005 0.000000 0.000000 -29.668500 9.141203 2.800750 -21.317706 0.000000 0.000000 16.073200 6.071601 -12.205445 9.574737 0.000000 0.000000 -44.110100 
-13.773000 8.872914 47.018467 -12.542781 -60.811900 15.832956 -10.269806 -2.529573 -7.606456 21.893405 -7.852337 5.175660 0.000000 0.000000 0.000000 -2.061072 -22.854855 17.733365 23.571649 -0.655912 -84.858460 -40.266102 5.822980 7.309190 -31.360701 1.084260 15.432600 180.000000 -67.587997 -180.000000 67.025803 -14.456400 12.180500 21.694799 0.331819 15.895996 14.468700 14.166200 -14.617800 -180.000000 67.181999 -180.000000 -61.346699 -42.964802 -33.645401 2.440514 2.983610 0.646544 0.000000 0.000000 10.579300 -13.909413 -0.136234 -3.816011 0.000000 0.000000 -29.887200 9.057117 2.954639 -21.373806 0.000000 0.000000 12.916200 5.557057 -12.747779 9.656878 0.000000 0.000000 -44.081900 
